<?xml version="1.0" standalone="no"?>
<!DOCTYPE svg PUBLIC "-//W3C//DTD SVG 20010904//EN"
 "http://www.w3.org/TR/2001/REC-SVG-20010904/DTD/svg10.dtd">
<svg version="1.0" xmlns="http://www.w3.org/2000/svg"
 width="426.000000pt" height="426.000000pt" viewBox="0 0 426.000000 426.000000"
 preserveAspectRatio="xMidYMid meet">
<metadata>
Created by potrace 1.14, written by Peter Selinger 2001-2017
</metadata>
<g transform="translate(0.000000,426.000000) scale(0.100000,-0.100000)"
fill="#000000" stroke="none">
<path d="M1445 3039 c-98 -12 -117 -17 -182 -49 -115 -57 -204 -183 -239 -341
-8 -34 -20 -186 -16 -198 2 -6 40 -7 100 -3 53 3 114 6 134 6 31 1 38 5 39 21
6 235 81 348 225 341 102 -5 155 -68 160 -188 8 -192 -156 -481 -626 -1108
-81 -108 -86 -117 -79 -150 4 -19 10 -54 13 -78 3 -24 8 -47 10 -51 3 -4 170
-8 373 -9 202 -1 422 -4 489 -7 94 -4 121 -3 121 7 0 7 4 54 8 103 11 130 11
170 0 169 -5 -1 -135 -5 -288 -9 l-278 -6 17 33 c26 51 130 224 192 318 31 47
88 135 127 195 200 306 250 450 224 639 -28 209 -172 346 -379 362 -36 3 -69
7 -75 8 -5 1 -37 -1 -70 -5z"/>
<path d="M3157 3034 c-1 -1 -36 -5 -76 -9 -41 -4 -86 -8 -100 -10 -14 -1 -57
-6 -96 -11 -38 -4 -74 -8 -80 -9 -5 -1 -29 -3 -53 -3 l-43 -2 -85 -177 c-172
-359 -312 -631 -391 -758 -71 -116 -84 -146 -79 -187 3 -24 8 -73 12 -109 l6
-65 353 0 354 1 -5 -120 c-10 -280 -11 -324 -5 -333 3 -5 78 -9 167 -8 l160 0
-4 228 c-4 217 -3 228 14 229 11 1 45 1 76 2 63 0 60 -4 73 97 3 25 8 52 10
60 2 8 6 32 9 53 l6 38 -52 -1 c-29 -1 -73 -1 -97 -1 l-43 1 5 493 c4 270 9
517 12 548 5 54 5 55 -20 55 -14 0 -27 -1 -28 -2z m-277 -401 c1 -76 3 -263 4
-415 l2 -278 -36 0 c-365 -5 -410 -4 -410 6 0 10 188 386 257 515 70 130 107
194 115 197 4 2 8 8 8 12 0 8 52 100 56 100 1 0 3 -62 4 -137z"/>
</g>
</svg>
